<?xml version="1.0" standalone="no"?>
<!DOCTYPE svg PUBLIC "-//W3C//DTD SVG 20010904//EN"
 "http://www.w3.org/TR/2001/REC-SVG-20010904/DTD/svg10.dtd">
<svg version="1.0" xmlns="http://www.w3.org/2000/svg"
 width="438.000000pt" height="220.000000pt" viewBox="0 0 438.000000 220.000000"
 preserveAspectRatio="xMidYMid meet">

<g transform="translate(0.000000,220.000000) scale(0.100000,-0.100000)"
fill="#000000" stroke="none">
<path d="M3360 1504 c-119 -32 -218 -116 -273 -232 -42 -89 -49 -209 -17 -302
45 -133 137 -225 271 -270 93 -32 212 -25 303 18 170 79 269 264 238 443 -43
249 -283 407 -522 343z m279 -94 c237 -127 239 -495 4 -622 -143 -77 -322 -51
-429 64 -72 77 -89 124 -89 248 0 95 3 110 28 160 70 136 170 192 332 187 80
-3 97 -7 154 -37z"/>
<path d="M3378 1374 c-14 -14 -8 -39 12 -52 19 -12 20 -23 20 -237 l0 -225 60
0 60 0 0 243 c0 133 -4 248 -9 256 -9 15 -131 28 -143 15z"/>
<path d="M3240 1244 c-6 -15 -9 -102 -8 -203 l3 -176 58 -3 57 -3 0 206 0 205
-50 0 c-45 0 -52 -3 -60 -26z"/>
<path d="M3582 1068 l3 -203 58 -3 57 -3 -2 203 -3 203 -58 3 -57 3 2 -203z"/>
<path d="M1492 1394 c-26 -18 -30 -65 -6 -85 9 -7 33 -14 54 -14 47 0 70 19
70 56 0 32 -31 59 -70 59 -14 0 -36 -7 -48 -16z"/>
<path d="M600 1375 c0 -18 5 -25 19 -25 10 0 21 -6 24 -14 3 -7 -30 -120 -73
-250 l-78 -237 66 3 66 3 18 63 19 63 81 -3 81 -3 17 -60 17 -60 71 -3 c40 -2
72 -1 72 0 0 2 -33 120 -74 263 -49 172 -80 264 -92 272 -12 9 -53 13 -126 13
l-108 0 0 -25z m175 -204 c14 -51 25 -94 25 -97 0 -2 -25 -4 -55 -4 -37 0 -55
4 -55 13 0 18 53 188 57 183 2 -2 15 -45 28 -95z"/>
<path d="M1000 1376 c0 -15 7 -26 20 -29 19 -5 20 -14 20 -251 l0 -246 65 0
65 0 0 256 c0 157 -4 263 -10 275 -9 16 -22 19 -85 19 -72 0 -75 -1 -75 -24z"/>
<path d="M1220 1376 c0 -15 7 -26 20 -29 19 -5 20 -14 20 -251 l0 -246 65 0
65 0 0 256 c0 157 -4 263 -10 275 -9 16 -22 19 -85 19 -72 0 -75 -1 -75 -24z"/>
<path d="M1800 1260 c-25 -6 -58 -15 -73 -21 -25 -11 -28 -16 -23 -43 9 -44
16 -47 70 -31 79 24 107 19 120 -21 6 -20 1 -23 -66 -38 -100 -22 -134 -45
-148 -97 -25 -90 15 -159 92 -159 24 0 61 9 83 20 38 20 38 20 52 0 12 -16 26
-20 79 -20 58 0 64 2 64 20 0 11 -7 23 -15 26 -12 5 -15 29 -15 133 0 143 -11
194 -45 217 -29 19 -116 26 -175 14z m100 -248 c0 -45 -23 -72 -65 -75 -62 -5
-58 76 5 99 55 20 60 18 60 -24z"/>
<path d="M2316 1255 c-21 -7 -46 -21 -54 -29 -14 -14 -17 -13 -27 7 -9 19 -20
22 -83 25 -79 3 -92 -8 -52 -48 18 -18 20 -33 20 -190 l0 -170 60 0 60 0 0
138 c0 122 2 141 18 155 24 22 78 22 86 1 3 -9 6 -78 6 -155 l0 -139 60 0 60
0 0 176 c0 101 -4 183 -10 195 -12 22 -61 49 -87 49 -10 -1 -36 -7 -57 -15z"/>
<path d="M1450 1241 c0 -10 7 -21 15 -25 13 -4 15 -35 15 -186 l0 -180 65 0
65 0 0 193 c0 137 -3 196 -12 205 -7 7 -40 12 -80 12 -60 0 -68 -2 -68 -19z"/>
<path d="M2547 1253 c-4 -3 -7 -30 -7 -60 0 -45 3 -53 19 -53 10 0 21 9 24 20
4 17 14 20 61 20 31 0 56 -2 56 -5 0 -2 -38 -58 -85 -123 -74 -104 -85 -125
-85 -161 l0 -41 160 0 160 0 0 45 0 44 -85 3 -85 3 85 119 c71 100 85 125 85
158 l0 38 -148 0 c-82 0 -152 -3 -155 -7z"/>
</g>
</svg>
