<svg xmlns="http://www.w3.org/2000/svg" version="1.1" xmlns:xlink="http://www.w3.org/1999/xlink" xmlns:svgjs="http://svgjs.dev/svgjs" width="100%" height="100%" viewBox="0 0 1000 600"><rect width="1000" height="600" x="0" y="0" fill="#0000"/><g><circle r="166.66666666666666" cx="370.94945780436194" cy="357.60991056927355" fill="#1d1b1b" transform="matrix(0.7408680227382953,0,0,0.7408680227382951,-6.827238005820956,35.05824575868759)"/><path d="M227.80378703115508 430.5664077641923L177.93623952193576 430.5664077641923L177.93623952193576 428.5228884581799L183.86812195188844 428.5228884581799Q188.3525115400823 428.5228884581799 191.41779049910093 427.1037778290046Q194.48306945811953 425.6562849872459 196.72526425221645 422.1936550520582Q198.99584125889692 418.70264290428696 201.03936056490932 412.57208498624976L201.03936056490932 412.57208498624976L245.57105210842957 284.65345287239006L255.98732412657614 284.65345287239006L307.30236447755425 417.6808832512808Q308.92015059481406 421.7679218633056 310.56631892465737 424.1236455077365Q312.1841050419172 426.4793691521675 314.34115319826367 427.5011288051738Q316.49820135461005 428.5228884581799 319.33642261296063 428.5228884581799L319.33642261296063 428.5228884581799L322.00435059581014 428.5228884581799L322.00435059581014 430.5664077641923L265.8075696804691 430.5664077641923L265.8075696804691 428.5228884581799L270.519016969331 428.5228884581799Q278.267361004628 428.5228884581799 281.7583731523992 426.67804464025204Q285.2210030875869 424.83320082232416 285.2210030875869 420.1501357460458L285.2210030875869 420.1501357460458Q285.2210030875869 418.92970060495503 285.0223275995024 417.5957366135303Q284.8236521114178 416.2617726221055 284.51144777299925 414.61560429226216Q284.1992434345807 412.99781817500235 283.37615926965907 411.15297435707447L283.37615926965907 411.15297435707447L270.9163679455001 377.63358129595434L215.5426711950807 377.63358129595434L204.30331501201246 409.7338637278992Q203.67890633517533 411.3516498451591 203.28155535900626 412.99781817500235Q202.85582217025367 414.61560429226216 202.65714668216913 415.9495682836869Q202.4584711940846 417.28353227511167 202.4584711940846 418.50396741620244L202.4584711940846 418.50396741620244Q202.4584711940846 424.0384988699861 207.36859397103106 426.280693664083Q212.2787167479775 428.5228884581799 223.09233974229318 428.5228884581799L223.09233974229318 428.5228884581799L227.80378703115508 428.5228884581799L227.80378703115508 430.5664077641923ZM231.26641696634277 332.2788055875124L216.1386976593343 375.59006198994194L270.0932837805784 375.59006198994194L255.19262217423798 335.7414355227001Q252.52469419138845 328.7877934397413 250.28249939729153 322.45856003361945Q248.04030460319456 316.12932662749773 246.0819319349327 310.3109730478791Q244.1519414792543 304.4926194682605 242.50577314941097 298.95808801447686L242.50577314941097 298.95808801447686Q241.0866625202357 303.47085981525424 239.86622737914496 307.2456940888605Q238.61741002547072 311.02052836246673 237.39697488437997 314.71021599832244Q236.17653974328925 318.37152142159465 234.64390026377993 322.57208888395354Q233.11126078427066 326.7442741337289 231.26641696634277 332.2788055875124L231.26641696634277 332.2788055875124ZM389.2418122061349 430.5664077641923L329.7810768436907 430.5664077641923L329.7810768436907 428.5228884581799L332.4206226139567 428.5228884581799Q337.9551540677403 428.5228884581799 341.72998834134654 426.87672012833656Q345.5048226149528 425.25893401107675 347.34966643288067 421.9949795639736Q349.19451025080855 418.70264290428696 349.19451025080855 413.8209023399241L349.19451025080855 413.8209023399241L349.19451025080855 300.6042563443202Q349.19451025080855 295.89280905545826 347.34966643288067 292.82753009643966Q345.5048226149528 289.76225113742106 341.72998834134654 288.22961165791173Q337.9551540677403 286.69697217840246 332.4206226139567 286.69697217840246L332.4206226139567 286.69697217840246L329.7810768436907 286.69697217840246L329.7810768436907 284.65345287239006L387.1982929001225 284.65345287239006Q412.9409597133621 284.65345287239006 425.2020755494365 296.0063379057923Q437.4631913855109 307.33084072661103 437.4631913855109 327.368682810566L437.4631913855109 327.368682810566Q437.4631913855109 336.56451968762184 434.59658791457684 344.8521257620054Q431.7299844436428 353.11134962380555 425.3156043997705 359.66764073059534Q418.87284214331476 366.1955496248017 408.34304127483415 369.9703838984079Q397.8132404063536 373.7452181720142 382.6855210993451 373.7452181720142L382.6855210993451 373.7452181720142L369.82837879901706 373.7452181720142L369.82837879901706 413.8209023399241Q369.82837879901706 418.70264290428696 371.67322261694494 421.9949795639736Q373.4896842222893 425.25893401107675 377.292900708479 426.87672012833656Q381.0677349820853 428.5228884581799 386.5738842232854 428.5228884581799L386.5738842232854 428.5228884581799L389.2418122061349 428.5228884581799L389.2418122061349 430.5664077641923ZM369.82837879901706 371.7016988660018L380.6420017933327 371.7016988660018Q390.06489637105653 371.7016988660018 396.5928052652629 369.2608285838202Q403.1207141594691 366.8199583016388 407.321281621828 361.59763118627376Q411.5218490841868 356.3753040709087 413.4518395398652 348.1160802091086Q415.38182999554357 339.8284741347249 415.38182999554357 328.1917669754876L415.38182999554357 328.1917669754876Q415.38182999554357 313.2627231565637 412.23140439877443 304.1804151298419Q409.05259658942185 295.0697248905366 402.098954506463 290.89753964076124Q395.1736946360876 286.69697217840246 383.7072807523513 286.69697217840246L383.7072807523513 286.69697217840246L369.82837879901706 286.69697217840246L369.82837879901706 371.7016988660018ZM520.4243987670977 432.6099270702047L520.4243987670977 432.6099270702047Q499.3931792427202 432.6099270702047 485.2872195887178 423.21541470506435Q471.1812599347155 413.8209023399241 464.14247121400615 397.0470147030722Q457.0753002807133 380.30150927880396 457.0753002807133 358.021472400752L457.0753002807133 358.021472400752Q457.0753002807133 335.5427600346156 464.2276178517567 318.5701969096793Q471.37993542280014 301.62601599732636 485.99677490330544 292.117974781852Q500.61361438381084 282.60993356637766 522.8936512618627 282.60993356637766L522.8936512618627 282.60993356637766Q536.1765267509434 282.60993356637766 545.2588347776651 285.87388801348084Q554.3411428043869 289.16622467316745 559.1661189435829 294.473698426283Q563.9627128701953 299.78117217939854 563.9627128701953 306.1104055855203L563.9627128701953 306.1104055855203Q563.9627128701953 313.0640476684792 558.8539146051644 316.44153096591634Q553.7451163401333 319.8190142633535 546.1670655803374 319.8190142633535L546.1670655803374 319.8190142633535Q546.1670655803374 307.13216523852645 543.5275198100713 299.46896784098Q540.8595918272218 291.80577044343346 535.1547670979371 288.3431405082458Q529.4215601560691 284.8521283604746 520.2257232790132 284.8521283604746L520.2257232790132 284.8521283604746Q505.9210881369264 284.8521283604746 496.9239267479551 293.0262055845242Q487.92676535898386 301.2002828085738 483.83972674695906 317.26461513083797Q479.75268813493426 333.30056524051867 479.75268813493426 356.99971274774583L479.75268813493426 356.99971274774583Q479.75268813493426 381.5219444198946 484.15193108537767 397.87009886799393Q488.55117403582096 414.2182533160931 498.0592152512953 422.3923305401427Q507.56725646676966 430.5664077641923 522.8936512618627 430.5664077641923L522.8936512618627 430.5664077641923Q536.772553215197 430.5664077641923 545.2588347776651 423.52761904348296Q553.7451163401333 416.46044811019004 558.0308304402427 400.73670233892796L558.0308304402427 400.73670233892796Q560.6987584230922 401.7584619919341 561.9191935641829 403.6884524476125Q563.1396287052737 405.6468251158744 563.1396287052737 408.48504637422496L563.1396287052737 408.48504637422496Q563.1396287052737 412.37340949816524 560.4717007224242 416.573976960524Q557.8321549521581 420.74616221029936 552.5246811990426 424.4358498461551Q547.1888252333436 428.1255374820109 539.2418057099619 430.3677322761078Q531.2664039739968 432.6099270702047 520.4243987670977 432.6099270702047Z " fill="#ec4d37" transform="matrix(0.7408680227382953,0,0,0.7408680227382951,-6.827238005820956,35.05824575868759)"/><path d="M653.6248740875153 396.8225762913219L653.6248740875153 396.8225762913219Q645.9962907124499 396.8225762913219 639.9236790172845 395.18016174031635Q633.851067322119 393.5593579070871 629.5721452023939 390.6851324428273Q625.2932230826689 387.7892962607911 623.1105405872535 383.8993670610411Q620.9494688096145 380.009437861291 620.9494688096145 375.3415228215909L620.9494688096145 375.3415228215909Q620.9494688096145 371.77575438848663 622.2677225939743 369.35535399753104Q623.5859763783341 366.95656432435175 626.0712089226188 365.70314269332124Q628.5564414669036 364.4497210622906 632.1438206177843 364.4497210622906L632.1438206177843 364.4497210622906Q632.2950956422189 374.5635369816409 634.7154960331745 381.5005773878618Q637.1142857063538 388.41600707630647 642.1063615126998 391.8521112027524Q647.0768266012693 395.2666046114219 654.7054099763347 395.2666046114219L654.7054099763347 395.2666046114219Q664.6679508712502 395.2666046114219 670.8053947197449 389.4317108117968Q676.9644492860159 383.5968170121716 676.9644492860159 372.2295794617908L676.9644492860159 372.2295794617908Q676.9644492860159 365.22770690224064 674.3927738706254 360.88395262918635Q671.8210984552352 356.51858763835565 666.1374796800447 353.0176513585806Q660.4538609048543 349.5167150788056 651.2909165676652 345.32423583018596L651.2909165676652 345.32423583018596Q646.450115785754 342.9902783103359 641.3932078260789 340.2673278705109Q636.3362998664038 337.54437743068587 632.0573777466786 333.7192803842649Q627.7784556269536 329.9157940556203 625.2283909293396 324.38345030486465Q622.6567155139493 318.8727172718854 622.6567155139493 311.2441338968199L622.6567155139493 311.2441338968199Q622.6567155139493 301.90830381741966 626.6979197381341 295.53314207338485Q630.7391239623189 289.1579803293499 638.1299894418441 285.8731512273388Q645.5208549213693 282.60993284310393 655.4833958162848 282.60993284310393L655.4833958162848 282.60993284310393Q664.6679508712502 282.60993284310393 671.4321055352602 285.09516538738876Q678.19626019927 287.6020086494499 682.021357245691 291.64321287363475Q685.8248435743355 295.68441709781956 685.8248435743355 300.5036071619544L685.8248435743355 300.5036071619544Q685.8248435743355 305.02024717721974 682.4103501656659 307.5919225926101Q678.9742460392201 310.16359800800046 673.5283451595699 310.16359800800046L673.5283451595699 310.16359800800046Q673.5283451595699 297.2403887777196 669.3358659109504 290.71395200924997Q665.1217759445544 284.165904523004 655.33212079185 284.165904523004L655.33212079185 284.165904523004Q649.4107841211194 284.165904523004 644.8941441058539 286.5863049139596Q640.399114808365 288.98509458713886 637.9787144174094 293.7394524979445Q635.5583140264538 298.49381040875016 635.5583140264538 305.6469579927351L635.5583140264538 305.6469579927351Q635.5583140264538 313.2755413678005 638.3677073373844 317.9434564075006Q641.177100648315 322.6113714472007 646.839108705729 325.9394219847647Q652.5227274809195 329.2890832401051 661.0805717203697 333.33028746428994L661.0805717203697 333.33028746428994Q668.8604301198698 336.9176666151705 675.473309759445 340.8075958149206Q682.0861893990201 344.6975250146707 686.127393623205 350.61886168540144Q690.1902085651661 356.51858763835565 690.1902085651661 366.1785784844017L690.1902085651661 366.1785784844017Q690.1902085651661 375.66568358823673 685.9112864454411 382.51628112335214Q681.632364325716 389.34526794069114 673.4635130062408 393.0839221160066Q665.2946616867656 396.8225762913219 653.6248740875153 396.8225762913219ZM743.5470707550716 396.8225762913219L743.5470707550716 396.8225762913219Q726.1288322273017 396.8225762913219 716.4040092279265 385.6282244831522Q706.6791862285513 374.4122619572061 706.6791862285513 354.1846301185056L706.6791862285513 354.1846301185056Q706.6791862285513 332.40102659990515 715.6908555413056 321.3579498161701Q724.7241355718364 310.3148730324352 741.2131132352215 310.3148730324352L741.2131132352215 310.3148730324352Q756.3190049609177 310.3148730324352 764.941681353697 319.6507031118354Q773.5859684642528 328.98653319123565 773.5859684642528 347.50691832560136L773.5859684642528 347.50691832560136L773.5859684642528 351.2239617831403L721.763467236471 351.2239617831403Q721.9147422609058 367.1078393487865 724.0974247563211 376.7462194770562Q726.2801072517365 386.40621032310224 731.1857401869769 390.83640746726206Q736.0913731222172 395.2666046114219 744.0225065461522 395.2666046114219L744.0225065461522 395.2666046114219Q749.9222324991064 395.2666046114219 754.5253153854774 393.0839221160066Q759.106787554072 390.9012396205912 762.218730913872 386.62231750086613Q765.3306742736721 382.34339538114097 766.432820880268 376.1195086615409L766.432820880268 376.1195086615409Q768.2913426090374 376.44366942818675 769.2206034734221 377.9996411080868Q770.1498643378069 379.55561278798683 770.1498643378069 381.2628594923215L770.1498643378069 381.2628594923215Q770.1498643378069 384.3748028521216 767.210806720218 388.0270141563314Q764.2501383848526 391.6792254605413 758.4152445852275 394.25090087593156Q752.5803507856024 396.8225762913219 743.5470707550716 396.8225762913219ZM721.763467236471 349.66799010324024L757.8749766408177 349.66799010324024Q757.8749766408177 335.98840575078583 756.1461192187065 327.73311156020503Q754.4388725143718 319.49942808740064 750.7002183390565 315.6743310409798Q746.9831748815175 311.8708447123352 740.9105631863521 311.8708447123352L740.9105631863521 311.8708447123352Q734.5354014423172 311.8708447123352 730.472586500356 315.6743310409798Q726.4313822761711 319.49942808740064 724.421585522967 327.73311156020503Q722.3901780519864 335.98840575078583 721.763467236471 349.66799010324024L721.763467236471 349.66799010324024ZM817.3044505258886 432.6099249290227L817.3044505258886 432.6099249290227Q801.1180229113729 432.6099249290227 793.0356144630033 426.77503112939763Q784.9315952968573 420.94013732977254 784.9315952968573 411.3017572015029L784.9315952968573 411.3017572015029Q784.9315952968573 405.85585632185274 787.4384385589184 401.879484250997Q789.9236711032032 397.90311218014136 795.0454112162075 395.5691546602913Q800.1887620469882 393.23519714044124 807.9686204464883 393.23519714044124L807.9686204464883 393.23519714044124Q801.8960087513229 391.3766754116718 798.8705082626284 387.18419616305226Q795.8233970561575 382.97010619665633 795.8233970561575 378.3021911569562L795.8233970561575 378.3021911569562Q795.8233970561575 373.78555114169086 798.8705082626284 369.6795147641769Q801.8960087513229 365.5518676688865 808.2711704953578 363.3691851734712L808.2711704953578 363.3691851734712Q800.8154728625035 360.7326776047516 796.3852757183437 354.57362303848066Q791.9334678564074 348.43617918998603 791.9334678564074 339.1003491105859L791.9334678564074 339.1003491105859Q791.9334678564074 325.7233148070008 799.2595011826035 318.00828856082984Q806.5639237910231 310.3148730324352 821.1943797256387 310.3148730324352L821.1943797256387 310.3148730324352Q826.6402806052888 310.3148730324352 831.0056455961194 311.6331268167949Q835.3493998691737 312.95138060115465 838.7855039956197 315.4366131454395L838.7855039956197 315.4366131454395Q841.1194615154697 312.95138060115465 845.0093907152198 309.99071226578934Q848.8993199149699 307.0516546482004 854.1723350524088 307.0516546482004L854.1723350524088 307.0516546482004Q858.6889750676743 307.0516546482004 860.9581004341951 309.45044432137956Q863.2056150829396 311.8708447123352 863.2056150829396 315.2853381210047L863.2056150829396 315.2853381210047Q863.2056150829396 318.3972814808048 861.2606504830645 320.42868895178543Q859.3156858831895 322.43848570498966 854.9503208923588 322.43848570498966L854.9503208923588 322.43848570498966Q854.9503208923588 317.4680206164201 853.3295170591297 315.13406309657006Q851.6871025081241 312.80010557672 848.1213340750198 312.80010557672L848.1213340750198 312.80010557672Q846.0899266040392 312.80010557672 844.3826798997045 313.4916485455644Q842.6754331953697 314.2048022321853 840.0173149088738 316.38748472760057L840.0173149088738 316.38748472760057Q844.5339549241392 320.1045281851396 846.8679124439892 325.87458983143557Q849.2018699638393 331.62304075995513 849.2018699638393 338.6249133195053L849.2018699638393 338.6249133195053Q849.2018699638393 350.14342589432084 842.2864402753947 357.7720092693863Q835.3493998691737 365.4005926444517 821.1943797256387 365.4005926444517L821.1943797256387 365.4005926444517Q818.2337113902732 365.4005926444517 815.5107609504482 365.01159972447675Q812.7878105106232 364.6226068045017 810.3025779663384 363.99589598898643L810.3025779663384 363.99589598898643Q806.5639237910231 365.5518676688865 805.1592271355577 367.73455016430177Q803.7761411978688 369.89562194194076 803.7761411978688 372.55374022843665L803.7761411978688 372.55374022843665Q803.7761411978688 376.5949444526214 806.6503666621286 378.453466181391Q809.5245921263884 380.33359862793685 815.2730430549079 380.33359862793685L815.2730430549079 380.33359862793685L832.8641673248889 380.33359862793685Q846.7166374195546 380.33359862793685 852.6163633725088 386.86003539640643Q858.5377000432395 393.4080828826524 858.5377000432395 403.5218988020027L858.5377000432395 403.5218988020027Q858.5377000432395 416.8989331055877 848.5103269949949 424.743623658417Q838.4613432289738 432.6099249290227 817.3044505258886 432.6099249290227ZM818.5578721569192 431.0539532491227L818.5578721569192 431.0539532491227Q833.3396031159695 431.0539532491227 840.3414756755196 425.6944952405782Q847.3433482350698 420.3134265142572 847.3433482350698 409.8970605460375L847.3433482350698 409.8970605460375Q847.3433482350698 401.79304137989146 843.0644261153446 397.989555051247Q838.7855039956197 394.18606872260244 829.9034989895237 394.18606872260244L829.9034989895237 394.18606872260244L813.111971277269 394.18606872260244Q808.8978813108731 394.18606872260244 805.0943949822286 395.7420404025025Q801.2692979358077 397.2980120824025 798.8705082626284 401.1879412821526Q796.4501078716728 405.0778704819027 796.4501078716728 411.9068572992417L796.4501078716728 411.9068572992417Q796.4501078716728 418.30362976105295 799.1082261581687 422.5825518807781Q801.7447337268882 426.86147400050316 806.6503666621286 428.9577136248129Q811.555999597369 431.0539532491227 818.5578721569192 431.0539532491227ZM820.7189439345581 363.84462096455167L820.7189439345581 363.84462096455167Q825.8622947653388 363.84462096455167 828.8877952540332 361.1865026780558Q831.9349064605042 358.5499951093363 833.2531602448639 352.9528192052515Q834.5714140292237 347.3340325833902 834.5714140292237 338.6249133195053L834.5714140292237 338.6249133195053Q834.5714140292237 329.44035826453984 833.1667173737584 323.5406323115855Q831.7836314360694 317.6192956408548 828.7365202295986 314.745070176595Q825.711019740904 311.8708447123352 820.5676689101234 311.8708447123352L820.5676689101234 311.8708447123352Q815.5972038215538 311.8708447123352 812.4852604617537 314.89634520102976Q809.3733171019536 317.9434564075006 807.9686204464883 323.84318236045493Q806.5639237910231 329.76451903118567 806.5639237910231 338.77618834393996L806.5639237910231 338.77618834393996Q806.5639237910231 347.3340325833902 808.0550633175939 352.9528192052515Q809.5245921263884 358.5499951093363 812.6365354861884 361.1865026780558Q815.7484788459885 363.84462096455167 820.7189439345581 363.84462096455167ZM909.1067796399907 396.8225762913219L909.1067796399907 396.8225762913219Q895.4055845697598 396.8225762913219 888.64142990575 389.58298583623144Q881.87727524174 382.34339538114097 881.87727524174 366.3298535088365L881.87727524174 366.3298535088365L881.87727524174 327.4305615113356Q881.87727524174 322.1359356561201 880.710296481815 319.1104351674257Q879.54331772189 316.06332396095473 876.7339244109594 314.745070176595Q873.9461418178051 313.42681639223525 869.1269517536704 313.42681639223525L869.1269517536704 313.42681639223525L868.6515159625898 313.42681639223525L868.6515159625898 311.8708447123352L896.5077311763556 311.8708447123352L896.5077311763556 367.1078393487865Q896.5077311763556 377.070380243702 897.912427831821 383.05654906776186Q899.29551376951 389.0427178918217 902.6451750248502 391.8521112027524Q905.9948362801906 394.63989379590663 911.5920121842754 394.63989379590663L911.5920121842754 394.63989379590663Q918.5938847438256 394.63989379590663 923.1969676301966 390.98768249169683Q927.778439798791 387.33547118748703 930.1123973186412 380.2471557568312Q932.4463548384912 373.1804510439519 932.4463548384912 363.2179101490364L932.4463548384912 363.2179101490364L932.4463548384912 327.4305615113356Q932.4463548384912 322.1359356561201 931.2793760785663 319.1104351674257Q930.1123973186412 316.06332396095473 927.3030040077106 314.745070176595Q924.5152214145563 313.42681639223525 919.6960313504214 313.42681639223525L919.6960313504214 313.42681639223525L919.220595559341 313.42681639223525L919.220595559341 311.8708447123352L947.0768107731068 311.8708447123352L947.0768107731068 379.85816283685625Q947.0768107731068 385.1527886920716 948.2437895330319 388.17828918076617Q949.410768292957 391.225400387237 952.1985508861111 392.4572113004912Q955.0079441970418 393.71063293152184 959.8271342611766 393.71063293152184L959.8271342611766 393.71063293152184L960.3025700522572 393.71063293152184L960.3025700522572 395.2666046114219L933.5268907273107 395.2666046114219L933.5268907273107 373.9584368839019L933.2243406784413 373.9584368839019Q931.9709190474107 381.8895703078369 929.2479686075857 386.47104247643136Q926.5250181677605 391.07412536280236 923.0240818879855 393.23519714044124Q919.5231456082104 395.41787963585665 915.8709343040006 396.13103332247744Q912.2187229997908 396.8225762913219 909.1067796399907 396.8225762913219ZM1011.6496354889583 395.2666046114219L967.4557176362421 395.2666046114219L967.4557176362421 393.71063293152184L969.4871251072226 393.71063293152184Q974.1550401469227 393.71063293152184 976.9428227400771 392.4572113004912Q979.7522160510076 391.225400387237 980.9840269642617 388.5672821007411Q982.2374485952924 385.93077453202164 982.2374485952924 381.7382952834021L982.2374485952924 381.7382952834021L982.2374485952924 325.55042906478974Q982.2374485952924 321.20667479173545 980.9840269642617 318.54855650523956Q979.7522160510076 315.9120489365201 976.9428227400771 314.65862730548946Q974.1550401469227 313.42681639223525 969.4871251072226 313.42681639223525L969.4871251072226 313.42681639223525L969.0116893161421 313.42681639223525L969.0116893161421 311.8708447123352L996.7166295054733 311.8708447123352L996.7166295054733 327.4305615113356L997.0191795543427 327.4305615113356Q998.0997154431622 323.38935728715074 1000.2823979385776 319.49942808740064Q1002.465080433993 315.60949888765055 1006.8952775781528 312.95138060115465Q1011.3254747223126 310.3148730324352 1018.8027830729433 310.3148730324352L1018.8027830729433 310.3148730324352Q1026.5826414724434 310.3148730324352 1030.7102885677336 313.3403735211297Q1034.8379356630242 316.38748472760057 1034.8379356630242 321.8333856072507L1034.8379356630242 321.8333856072507Q1034.8379356630242 326.5013006469508 1031.488274407684 329.6132440067509Q1028.1386131523436 332.725187366551 1020.3587547528433 332.725187366551L1020.3587547528433 332.725187366551Q1020.3587547528433 323.0651965205049 1017.0955363686086 319.4129852162951Q1013.8323179843736 315.7607739120853 1009.7695030424125 315.7607739120853L1009.7695030424125 315.7607739120853Q1005.2744737449235 315.7607739120853 1002.6163554584276 318.9375494252145Q999.9798478897081 322.1359356561201 998.7264262586775 327.1928436157953Q997.4946153454233 332.2497515754704 997.1704545787775 337.609209584015Q996.8679045299081 342.9902783103359 996.8679045299081 347.50691832560136L996.8679045299081 347.50691832560136L996.8679045299081 380.9603094434521Q996.8679045299081 385.6282244831522 998.0997154431622 388.41600707630647Q999.3531370741929 391.225400387237 1002.2273625384526 392.4572113004912Q1005.1015880027123 393.71063293152184 1009.6182280179778 393.71063293152184L1009.6182280179778 393.71063293152184L1011.6496354889583 393.71063293152184L1011.6496354889583 395.2666046114219ZM1081.8196361088949 396.8225762913219L1081.8196361088949 396.8225762913219Q1065.0064976788638 396.8225762913219 1055.368117550594 386.0820495564564Q1045.7297374223244 375.3415228215909 1045.7297374223244 353.4066442785556L1045.7297374223244 353.4066442785556Q1045.7297374223244 331.62304075995513 1054.979124630619 320.96895689619515Q1064.2285118389136 310.3148730324352 1082.2950718999753 310.3148730324352L1082.2950718999753 310.3148730324352Q1099.0865996122297 310.3148730324352 1108.746590458276 320.96895689619515Q1118.3849705865455 331.62304075995513 1118.3849705865455 353.4066442785556L1118.3849705865455 353.4066442785556Q1118.3849705865455 375.3415228215909 1109.1355833782509 386.0820495564564Q1099.8645854521797 396.8225762913219 1081.8196361088949 396.8225762913219ZM1082.1221861577642 395.2666046114219L1082.1221861577642 395.2666046114219Q1089.7507695328295 395.2666046114219 1094.4186845725299 391.07412536280236Q1099.0865996122297 386.86003539640643 1101.1828392365396 377.67548034144096Q1103.3006895786257 368.5125360042518 1103.3006895786257 353.4066442785556L1103.3006895786257 353.4066442785556Q1103.3006895786257 338.47363829507054 1101.1828392365396 329.2890832401051Q1099.0865996122297 320.1045281851396 1094.4186845725299 315.9984918076256Q1089.7507695328295 311.8708447123352 1081.9709111333295 311.8708447123352L1081.9709111333295 311.8708447123352Q1074.342327758264 311.8708447123352 1069.6744127185639 315.9984918076256Q1065.0064976788638 320.1045281851396 1062.910258054554 329.2890832401051Q1060.8140184302442 338.47363829507054 1060.8140184302442 353.4066442785556L1060.8140184302442 353.4066442785556Q1060.8140184302442 368.5125360042518 1062.910258054554 377.67548034144096Q1065.0064976788638 386.86003539640643 1069.7608555896695 391.07412536280236Q1074.515213500475 395.2666046114219 1082.1221861577642 395.2666046114219ZM1160.2449309194117 396.8225762913219L1160.2449309194117 396.8225762913219Q1152.4650725199117 396.8225762913219 1146.5437358491808 394.96405456255246Q1140.6440098962266 393.0839221160066 1137.2943486408863 389.4317108117968Q1133.9446873855459 385.779499507587 1133.9446873855459 380.33359862793685L1133.9446873855459 380.33359862793685Q1133.9446873855459 376.1195086615409 1135.6519340898808 373.78555114169086Q1137.3591807942155 371.4515936218408 1139.6283061607364 370.522332757456Q1141.875820809481 369.59307189307134 1143.7559532560267 369.59307189307134L1143.7559532560267 369.59307189307134Q1143.7559532560267 377.9996411080868 1145.3119249359268 383.68325988327723Q1146.8678966158268 389.34526794069114 1150.5849400733657 392.30593627605657Q1154.3235942486813 395.2666046114219 1160.5474809682814 395.2666046114219L1160.5474809682814 395.2666046114219Q1168.802775158862 395.2666046114219 1173.6219652229968 390.98768249169683Q1178.4411552871316 386.70876037197166 1178.4411552871316 378.3021911569562L1178.4411552871316 378.3021911569562Q1178.4411552871316 372.8562902773061 1176.5826335583622 369.6795147641769Q1174.7025011118162 366.48112853327126 1170.4235789920913 363.99589598898643Q1166.1446568723663 361.5106634447016 1158.537684215077 358.22583434269046L1158.537684215077 358.22583434269046Q1149.655679208981 354.33590514294036 1144.5339390959766 350.68369383873056Q1139.3905882651961 347.03148253452076 1137.2079057697806 342.66611754369006Q1135.0252232743655 338.3223632706358 1135.0252232743655 332.40102659990515L1135.0252232743655 332.40102659990515Q1135.0252232743655 321.8333856072507 1142.5025316249962 316.14976683206027Q1149.9798399756269 310.4661480568699 1163.205599254777 310.4661480568699L1163.205599254777 310.4661480568699Q1170.6612968876316 310.4661480568699 1176.0423656139524 312.41111265674493Q1181.401823622497 314.35607725662004 1184.2112169334277 317.6192956408548Q1186.9989995265819 320.8825140250896 1186.9989995265819 324.7724432248397L1186.9989995265819 324.7724432248397Q1186.9989995265819 328.98653319123565 1184.124774062322 331.5582086066259Q1181.2505485980623 334.10827330423984 1175.804647718412 334.10827330423984L1175.804647718412 334.10827330423984Q1175.804647718412 322.1359356561201 1172.5414293341773 317.07902769644505Q1169.2566002321664 312.0221197367699 1162.4276134148272 312.0221197367699L1162.4276134148272 312.0221197367699Q1157.1329875596116 312.0221197367699 1153.6320512798366 313.7293664411047Q1150.1311150000615 315.4366131454395 1148.3374254246212 318.7214422474506Q1146.5437358491808 321.9846606316855 1146.5437358491808 326.955125720255L1146.5437358491808 326.955125720255Q1146.5437358491808 332.40102659990515 1148.7264183445964 335.66424498414Q1150.9091008400114 338.94907408615114 1155.4905730086061 341.2830316060012Q1160.093655894977 343.61698912585126 1166.9226427123162 346.55604674344016L1166.9226427123162 346.55604674344016Q1175.804647718412 350.14342589432084 1180.9263878314164 353.79563719853064Q1186.069738662197 357.44784850274044 1188.1659782865067 361.8996563646767Q1190.2622179108166 366.3298535088365 1190.2622179108166 372.4024652040019L1190.2622179108166 372.4024652040019Q1190.2622179108166 384.52607787655637 1182.179809462447 390.6851324428273Q1174.0974010140776 396.8225762913219 1160.2449309194117 396.8225762913219Z " fill="black" transform="matrix(0.7408680227382953,0,0,0.7408680227382951,-6.827238005820956,35.05824575868759)"/></g></svg>