<?xml version="1.0" standalone="no"?>
<!DOCTYPE svg PUBLIC "-//W3C//DTD SVG 20010904//EN"
 "http://www.w3.org/TR/2001/REC-SVG-20010904/DTD/svg10.dtd">
<svg version="1.0" xmlns="http://www.w3.org/2000/svg"
 width="512.000000pt" height="512.000000pt" viewBox="0 0 512.000000 512.000000"
 preserveAspectRatio="xMidYMid meet">

<g transform="translate(0.000000,512.000000) scale(0.100000,-0.100000)"
fill="#000000" stroke="none">
<path d="M2200 3370 l0 -130 130 0 130 0 0 130 0 130 -130 0 -130 0 0 -130z"/>
<path d="M2680 3370 l0 -130 130 0 130 0 0 130 0 130 -130 0 -130 0 0 -130z"/>
<path d="M2200 2895 l0 -135 130 0 130 0 0 135 0 135 -130 0 -130 0 0 -135z"/>
<path d="M2680 2895 l0 -135 130 0 130 0 0 135 0 135 -130 0 -130 0 0 -135z"/>
<path d="M415 2630 c-90 -14 -145 -69 -145 -146 0 -76 42 -109 183 -145 100
-25 126 -45 111 -87 -7 -19 -21 -31 -49 -40 -64 -22 -132 -8 -237 46 -5 2 -8
-15 -8 -38 0 -39 2 -42 48 -63 61 -28 209 -30 259 -4 67 36 96 106 70 170 -18
42 -60 66 -161 91 -100 25 -126 40 -126 76 0 35 20 56 64 69 36 9 111 0 146
-19 18 -10 20 -8 20 30 0 33 -4 42 -22 49 -34 12 -108 18 -153 11z"/>
<path d="M4580 2375 l0 -245 145 0 145 0 0 35 0 35 -105 0 -105 0 0 210 0 210
-40 0 -40 0 0 -245z"/>
<path d="M650 2533 c0 -1 32 -91 70 -199 39 -109 70 -199 70 -201 0 -2 15 -3
34 -3 l34 0 48 137 c36 103 50 132 56 117 4 -10 26 -72 49 -136 l41 -118 33 0
32 0 72 201 c39 110 71 201 71 203 0 1 -19 0 -42 -3 l-41 -6 -47 -140 -47
-140 -47 143 c-44 130 -50 142 -72 142 -13 0 -27 1 -30 3 -4 1 -26 -54 -50
-123 -25 -69 -47 -132 -50 -140 -4 -8 -27 45 -53 124 l-47 139 -42 1 c-23 0
-42 0 -42 -1z"/>
<path d="M1565 2529 c-37 -10 -73 -42 -86 -76 -27 -73 10 -120 122 -153 41
-12 80 -27 87 -32 20 -17 14 -46 -13 -64 -31 -20 -100 -14 -158 15 l-38 19 3
-41 c3 -36 7 -42 38 -53 48 -17 153 -17 194 0 18 8 41 24 50 37 16 23 21 83
10 113 -9 24 -63 53 -134 71 -36 9 -71 21 -77 27 -21 17 -15 46 12 64 25 16
86 16 143 -1 20 -7 22 -4 22 28 0 33 -2 35 -44 46 -52 13 -88 13 -131 0z"/>
<path d="M1924 2521 c-52 -24 -74 -55 -74 -104 0 -71 26 -93 143 -123 37 -9
71 -22 78 -30 16 -19 1 -54 -28 -65 -43 -16 -80 -10 -165 26 -15 6 -18 2 -18
-29 0 -33 4 -39 35 -52 43 -18 146 -18 188 0 51 21 72 52 72 103 0 56 -31 86
-113 108 -114 32 -133 46 -112 86 17 31 89 37 166 14 18 -6 20 -3 16 29 -4 31
-9 37 -41 46 -53 15 -101 12 -147 -9z"/>
<path d="M2983 2533 l-133 -4 0 -199 0 -200 135 0 135 0 0 35 0 35 -100 0
-100 0 0 50 0 50 95 0 95 0 0 35 0 35 -95 0 -95 0 0 50 0 50 100 0 100 0 0 35
c0 19 -1 34 -2 33 -2 -1 -63 -4 -135 -5z"/>
<path d="M3877 2530 c-88 -28 -132 -104 -125 -219 3 -60 8 -75 34 -108 17 -21
46 -46 65 -55 39 -20 129 -24 178 -7 27 9 31 16 31 46 0 29 -3 34 -17 28 -134
-51 -213 -7 -213 120 0 113 78 162 193 121 l37 -14 0 34 c0 24 -6 37 -21 45
-29 15 -127 21 -162 9z"/>
<path d="M4195 2345 c-48 -104 -89 -196 -92 -202 -4 -9 7 -13 36 -13 40 0 43
2 61 45 l19 45 95 0 95 0 20 -45 c19 -43 22 -45 60 -45 l41 0 -24 53 c-12 28
-53 118 -90 198 -66 143 -68 147 -101 151 l-33 4 -87 -191z m161 0 l24 -55
-65 0 c-73 0 -71 -9 -25 95 24 56 23 57 66 -40z"/>
<path d="M1320 2330 l0 -200 40 0 40 0 0 200 0 200 -40 0 -40 0 0 -200z"/>
<path d="M2370 2330 l0 -200 35 0 34 0 3 123 3 122 48 -87 c43 -79 51 -88 77
-88 26 0 34 9 77 88 l48 87 3 -122 3 -123 34 0 35 0 0 200 0 200 -34 0 c-34 0
-36 -2 -97 -120 -35 -66 -65 -120 -68 -120 -4 0 -34 54 -69 120 -62 118 -64
120 -97 120 l-35 0 0 -200z"/>
<path d="M3180 2330 l0 -200 93 0 c148 0 213 28 248 104 21 46 25 139 8 183
-14 38 -57 83 -96 99 -21 9 -71 14 -143 14 l-110 0 0 -200z m232 116 c37 -24
51 -66 46 -132 -7 -82 -36 -107 -128 -112 l-70 -4 0 137 0 138 63 -5 c35 -3
75 -13 89 -22z"/>
<path d="M3610 2330 l0 -200 40 0 40 0 0 200 0 200 -40 0 -40 0 0 -200z"/>
<path d="M275 1810 l0 -210 2298 0 2297 0 0 210 0 210 -2297 0 -2298 0 0 -210z
m346 120 c20 -11 24 -27 11 -47 -6 -9 -16 -9 -47 1 -43 15 -78 8 -83 -17 -2
-11 13 -20 53 -32 63 -18 95 -44 95 -78 0 -70 -98 -105 -188 -68 -28 12 -30
15 -20 37 8 17 17 23 27 18 62 -25 105 -24 115 2 6 14 -22 34 -48 34 -8 0 -31
8 -51 17 -92 44 -33 157 76 147 22 -2 49 -9 60 -14z m1339 11 c8 -1 23 -8 33
-15 15 -12 17 -18 7 -35 -9 -17 -15 -19 -30 -11 -22 12 -80 13 -96 2 -32 -21
-43 -80 -21 -121 23 -46 107 -49 107 -5 0 20 -5 24 -31 24 -26 0 -30 3 -27 23
3 20 9 22 58 22 l55 0 3 -62 c3 -56 1 -63 -20 -74 -29 -16 -127 -16 -156 0
-61 33 -82 139 -39 202 24 36 76 60 117 54 14 -2 32 -4 40 -4z m2046 -16 c69
-45 69 -185 0 -230 -59 -39 -151 -21 -186 37 -42 69 -15 174 52 202 40 17 101
13 134 -9z m677 4 c30 -16 30 -15 18 -37 -10 -18 -14 -19 -48 -7 -41 14 -76 6
-81 -18 -2 -11 13 -21 54 -34 74 -23 103 -58 85 -102 -23 -53 -106 -72 -184
-42 -23 9 -27 15 -21 34 3 12 7 23 8 24 1 1 21 -4 44 -12 29 -10 49 -12 67 -5
41 16 30 37 -27 50 -56 14 -98 47 -98 79 0 26 45 79 73 84 31 6 84 -1 110 -14z
m-3373 -14 c0 -24 -3 -25 -60 -25 -57 0 -60 -1 -60 -25 0 -22 4 -24 58 -27 53
-3 57 -5 57 -28 0 -24 -3 -25 -57 -25 -57 0 -58 0 -58 -27 0 -28 1 -28 60 -28
57 0 60 -1 60 -25 0 -25 0 -25 -95 -25 l-95 0 0 130 0 130 95 0 c95 0 95 0 95
-25z m1212 -70 c3 -101 11 -117 53 -117 42 0 48 13 46 116 l-2 96 36 0 35 0 0
-89 c0 -49 -4 -101 -10 -115 -14 -39 -55 -60 -113 -59 -44 1 -55 5 -79 32 -27
30 -28 36 -28 131 l0 100 29 0 29 0 4 -95z m798 85 c25 -13 41 -65 30 -94 -5
-13 -18 -31 -30 -39 -12 -8 -17 -18 -12 -21 6 -3 22 -26 35 -51 l26 -45 -37 0
c-34 0 -39 4 -62 48 -17 31 -32 48 -47 50 -21 3 -23 0 -23 -47 l0 -51 -35 0
-35 0 0 130 0 130 86 0 c47 0 94 -4 104 -10z"/>
<path d="M3903 1890 c-51 -21 -49 -141 3 -160 47 -18 93 24 88 80 -1 8 -2 22
-3 31 -3 39 -48 65 -88 49z"/>
<path d="M3200 1860 c0 -30 1 -31 43 -28 37 3 42 6 42 28 0 22 -5 25 -42 28
-42 3 -43 2 -43 -28z"/>
</g>
</svg>
