<?xml version="1.0" standalone="no"?>
<!DOCTYPE svg PUBLIC "-//W3C//DTD SVG 20010904//EN"
 "http://www.w3.org/TR/2001/REC-SVG-20010904/DTD/svg10.dtd">
<svg version="1.0" xmlns="http://www.w3.org/2000/svg"
 width="1920.000000pt" height="751.000000pt" viewBox="0 0 1920.000000 751.000000"
 preserveAspectRatio="xMidYMid meet">

<g transform="translate(0.000000,751.000000) scale(0.100000,-0.100000)"
fill="#000000" stroke="none">
<path d="M3240 6204 c-14 -2 -65 -9 -115 -15 -309 -37 -655 -187 -919 -399
-290 -234 -497 -532 -616 -888 -61 -182 -89 -335 -97 -517 -17 -409 89 -792
316 -1142 33 -51 64 -93 70 -93 5 0 274 348 597 773 324 424 618 810 653 857
36 47 127 167 204 268 l138 182 -218 0 c-393 0 -602 -25 -730 -86 -55 -26 -87
-51 -140 -109 -39 -41 -87 -104 -108 -140 -21 -36 -40 -65 -44 -65 -14 0 -81
21 -81 26 0 8 128 504 142 554 l14 45 993 3 c889 2 993 0 987 -13 -3 -9 -133
-185 -288 -393 -155 -207 -502 -672 -771 -1032 -270 -360 -495 -661 -500 -668
-9 -11 10 -13 114 -7 83 5 214 1 394 -11 372 -24 716 -24 810 0 150 39 302
130 401 239 52 58 133 177 153 226 9 21 19 30 30 27 9 -3 28 -8 44 -12 15 -3
27 -12 27 -18 0 -26 -52 -163 -99 -261 -65 -136 -119 -214 -211 -306 -114
-114 -244 -183 -404 -215 -104 -21 -346 -14 -536 16 -484 76 -532 82 -762 87
-228 6 -301 0 -468 -34 -75 -15 -220 -69 -220 -82 0 -4 26 -32 58 -62 236
-230 508 -388 827 -481 187 -54 258 -63 520 -63 210 0 254 3 355 23 776 156
1372 751 1522 1518 20 105 23 148 23 364 0 210 -4 261 -22 360 -35 183 -124
424 -210 573 -322 553 -847 899 -1465 966 -91 10 -311 13 -368 5z"/>
<path d="M17903 5913 c-64 -22 -128 -90 -147 -154 -20 -66 -20 -102 -1 -165
31 -104 132 -177 245 -177 199 0 320 207 224 383 -60 111 -195 158 -321 113z
m208 -40 c155 -84 157 -303 5 -398 -42 -25 -59 -30 -116 -30 -57 0 -74 5 -116
30 -129 80 -152 255 -46 357 54 54 88 68 161 68 50 0 74 -6 112 -27z"/>
<path d="M17910 5669 c0 -124 3 -160 13 -157 8 3 13 30 15 76 l3 72 33 0 c40
0 49 -10 80 -86 14 -34 31 -60 41 -62 13 -3 15 1 10 18 -16 52 -58 131 -73
140 -10 5 -12 10 -4 10 6 0 21 9 32 20 28 28 26 75 -5 105 -20 21 -34 25 -85
25 l-60 0 0 -161z m128 119 c17 -17 15 -63 -3 -78 -8 -6 -32 -14 -55 -17 l-40
-6 0 57 0 56 43 0 c24 0 48 -5 55 -12z"/>
<path d="M14535 5256 c-374 -72 -670 -292 -794 -590 -53 -128 -72 -217 -78
-366 -6 -156 12 -267 67 -408 189 -489 775 -697 1437 -509 l78 22 3 168 c1 92
1 167 -2 167 -2 0 -34 -18 -71 -41 -83 -50 -196 -96 -283 -115 -88 -18 -260
-18 -341 1 -198 47 -363 196 -442 399 -37 97 -52 182 -51 306 1 344 191 616
487 696 80 21 253 29 344 15 98 -15 220 -57 288 -98 30 -18 57 -33 59 -33 2 0
4 77 4 170 l0 170 -27 11 c-83 31 -166 41 -383 45 -160 2 -245 -1 -295 -10z"/>
<path d="M6965 5193 c-49 -103 -155 -346 -151 -350 2 -2 26 7 53 20 198 101
419 136 801 129 l153 -3 -54 -77 c-29 -42 -228 -327 -442 -632 -575 -821 -635
-907 -635 -914 0 -3 362 -6 803 -6 l804 0 65 153 c36 83 78 178 92 210 14 31
24 57 22 57 -2 0 -46 -20 -97 -44 -230 -109 -332 -127 -743 -133 -188 -3 -316
-1 -313 4 3 5 74 108 158 228 84 121 196 283 249 360 53 77 128 185 166 240
322 462 544 785 544 789 0 4 -328 6 -728 6 l-728 0 -19 -37z"/>
<path d="M8807 5198 c71 -76 67 -39 74 -693 7 -657 9 -684 75 -823 83 -172
277 -313 493 -357 164 -33 387 -27 542 16 179 49 350 181 422 324 74 149 78
187 86 840 7 633 4 604 76 684 l37 41 -292 0 -292 0 36 -42 c66 -76 66 -80 66
-682 0 -307 -5 -571 -10 -610 -27 -185 -135 -294 -324 -327 -190 -32 -384 39
-463 170 -52 87 -55 126 -51 761 l3 575 24 45 c13 25 34 60 48 78 l24 32 -302
0 -303 0 31 -32z"/>
<path d="M10964 5186 c69 -91 67 -57 64 -912 -3 -861 2 -795 -76 -876 l-36
-38 298 0 299 0 -27 33 c-50 60 -69 116 -77 222 -9 118 -12 529 -3 537 3 4
100 -107 215 -245 244 -292 356 -410 442 -467 95 -62 135 -71 361 -77 l199 -6
-195 194 c-107 107 -225 228 -260 269 -151 174 -318 374 -318 381 0 4 12 10
28 13 56 14 209 96 268 145 70 57 126 136 155 219 17 46 20 76 17 158 -3 90
-7 107 -37 170 -46 92 -134 180 -230 229 -155 78 -296 95 -783 95 l-338 0 34
-44z m671 -187 c92 -13 164 -49 218 -109 53 -59 72 -117 70 -217 -3 -129 -62
-217 -190 -281 -66 -34 -180 -61 -268 -65 l-60 -2 -3 339 c-2 265 1 341 10
348 14 9 107 3 223 -13z"/>
<path d="M12818 5186 c74 -80 72 -57 72 -880 0 -818 1 -799 -71 -895 l-39 -51
290 0 c160 0 290 2 290 5 0 3 -15 25 -34 49 -63 83 -61 49 -61 876 0 841 -2
817 67 895 l40 45 -297 0 -298 0 41 -44z"/>
<path d="M15594 5198 c47 -59 67 -107 77 -191 6 -50 9 -352 7 -772 -3 -689 -3
-690 -26 -746 -12 -30 -36 -68 -52 -84 -17 -16 -30 -32 -30 -37 0 -4 128 -8
285 -8 157 0 285 3 285 6 0 3 -12 21 -26 39 -14 19 -35 58 -47 87 -20 50 -22
73 -25 386 l-3 332 420 0 421 0 0 -277 c-1 -386 -13 -456 -93 -540 l-31 -33
246 0 c135 0 265 3 290 6 l45 6 -33 50 c-18 27 -39 66 -46 86 -9 27 -13 212
-15 710 -5 826 -1 876 78 966 l41 46 -297 0 -296 0 31 -38 c17 -21 40 -63 52
-93 20 -50 22 -75 26 -356 l4 -303 -421 0 -421 0 0 258 c0 141 4 285 9 319 10
70 42 141 78 175 13 12 23 25 23 30 0 4 -131 8 -291 8 l-292 0 27 -32z"/>
<path d="M9509 2191 c-112 -21 -208 -90 -244 -177 -42 -100 -25 -225 40 -301
35 -41 73 -63 250 -143 82 -37 110 -61 126 -107 9 -27 7 -40 -8 -70 -47 -97
-197 -112 -375 -38 -20 8 -24 -5 -33 -101 l-7 -71 103 -18 c223 -39 407 4 483
114 36 51 46 92 46 181 -1 156 -54 209 -312 315 -81 33 -128 80 -128 128 0 47
34 95 83 117 64 30 116 26 263 -16 20 -5 22 0 31 73 7 56 7 80 -1 85 -37 24
-240 43 -317 29z"/>
<path d="M10291 1915 c-96 -27 -149 -71 -196 -164 -70 -139 -55 -366 31 -475
97 -123 340 -164 526 -89 l38 15 0 79 0 79 -37 -19 c-61 -31 -142 -51 -205
-51 -97 0 -164 38 -199 115 -37 79 -51 75 241 75 l260 0 0 38 c-1 70 -28 189
-56 246 -33 68 -88 118 -153 141 -67 24 -185 28 -250 10z m189 -143 c39 -21
80 -89 80 -134 l0 -28 -159 0 c-103 0 -162 4 -166 11 -11 17 23 93 54 123 49
47 131 59 191 28z"/>
<path d="M11120 1917 c-93 -26 -148 -77 -195 -180 -68 -148 -45 -373 49 -484
15 -18 52 -44 82 -59 49 -24 62 -26 142 -22 97 5 135 20 196 77 l39 36 -7 -60
c-10 -89 -22 -126 -56 -167 -61 -74 -180 -87 -314 -33 -37 15 -69 25 -71 23
-2 -1 -6 -37 -10 -79 l-7 -77 48 -16 c112 -37 269 -39 385 -6 82 23 158 101
192 198 19 53 21 87 25 450 l4 392 -96 0 -96 0 0 -47 0 -47 -37 36 c-21 20
-53 43 -71 52 -44 23 -146 29 -202 13z m220 -159 c19 -13 45 -45 59 -72 34
-66 36 -196 4 -267 -60 -133 -217 -141 -282 -14 -45 85 -39 247 11 311 52 66
145 84 208 42z"/>
<path d="M13092 1919 c-39 -12 -103 -73 -123 -117 -8 -18 -17 -32 -21 -32 -5
0 -8 32 -8 70 l0 70 -85 0 -85 0 0 -370 0 -370 95 0 95 0 0 168 c0 296 32 386
142 407 19 4 52 2 72 -3 l37 -11 -3 97 -3 97 -40 2 c-22 1 -55 -3 -73 -8z"/>
<path d="M13575 1917 c-80 -21 -126 -48 -182 -104 -75 -76 -97 -138 -98 -278
0 -100 3 -115 28 -170 69 -149 216 -227 395 -212 104 8 177 41 243 106 77 77
102 143 103 271 1 188 -77 312 -233 370 -68 26 -190 34 -256 17z m172 -148
c93 -35 142 -164 114 -301 -23 -109 -86 -168 -180 -168 -80 0 -119 24 -155 93
-71 138 -31 325 79 373 37 16 104 18 142 3z"/>
<path d="M14392 1914 c-136 -36 -189 -106 -180 -240 6 -102 51 -145 194 -189
101 -31 138 -59 136 -104 0 -18 -6 -39 -13 -47 -39 -47 -143 -57 -239 -24 -30
10 -59 15 -63 11 -4 -4 -7 -39 -5 -77 l3 -69 65 -11 c188 -34 333 -2 412 91
28 32 51 120 43 168 -16 100 -72 149 -220 197 -38 12 -80 32 -92 43 -47 42
-17 110 54 123 38 7 121 0 172 -16 19 -5 36 -9 37 -7 1 1 4 32 7 69 5 76 11
70 -87 87 -80 15 -160 13 -224 -5z"/>
<path d="M11850 1646 c0 -304 10 -362 74 -428 91 -94 276 -88 389 12 l37 32 0
-46 0 -46 90 0 90 0 0 370 0 370 -90 0 -90 0 0 -172 c0 -259 -18 -346 -84
-407 -34 -32 -124 -41 -161 -17 -56 36 -60 59 -63 339 l-3 257 -95 0 -94 0 0
-264z"/>
</g>
</svg>
